<svg xmlns="http://www.w3.org/2000/svg" width="375" viewBox="0 0 375 375" height="375" version="1.0"><defs><clipPath id="a"><path d="M 142 33.753906 L 276 33.753906 L 276 107 L 142 107 Z M 142 33.753906"/></clipPath><clipPath id="b"><path d="M 0.128906 153.300781 L 374.890625 153.300781 L 374.890625 239.253906 L 0.128906 239.253906 Z M 0.128906 153.300781"/></clipPath></defs><path fill="#FFF" d="M 106.28125 91.636719 C 106.28125 100.183594 106.28125 108.734375 106.28125 117.28125 C 99.535156 120.179688 92.789062 123.078125 86.039062 125.976562 C 69.769531 148.230469 53.496094 170.476562 37.230469 192.726562 C 62.707031 173.644531 89.332031 161.175781 116.546875 154.226562 C 130.964844 137.054688 145.386719 119.882812 159.808594 102.710938 C 175.0625 118.960938 190.316406 135.210938 205.570312 151.460938 C 208.988281 151.550781 212.410156 151.640625 215.828125 151.738281 C 197.710938 132.347656 179.59375 112.960938 161.472656 93.574219 C 148.34375 99.214844 135.21875 104.851562 122.09375 110.492188 C 122.09375 102.082031 122.09375 93.664062 122.09375 85.253906 C 116.820312 87.382812 111.554688 89.511719 106.28125 91.636719" fill-rule="evenodd"/><g clip-path="url(#a)"><path fill="#FFF" d="M 223.875 33.753906 L 223.875 57.996094 L 187.542969 45.382812 L 142.335938 98.839844 L 154.539062 93.300781 L 187.820312 55.632812 L 227.476562 106.589844 L 275.179688 88.867188 L 265.75 72.523438 L 239.683594 63.480469 L 239.683594 40.953125 L 223.875 33.753906" fill-rule="evenodd"/></g><path fill="#FFF" d="M 215.828125 144.535156 L 265.75 103.269531 L 271.574219 101.886719 L 220.289062 146.109375 L 231.144531 146.25 L 286.824219 100.222656 L 335.636719 152.566406 L 347.007812 152.84375 L 289.875 89.972656 L 196.972656 125.148438 L 215.828125 144.535156" fill-rule="evenodd"/><path fill="#009EE0" d="M 147.148438 103.484375 L 155.15625 99.617188 L 111.828125 152.5625 L 104.441406 155.152344 L 147.148438 103.484375" fill-rule="evenodd"/><path fill="#009EE0" d="M 191.660156 50.492188 L 197.527344 52.863281 L 233.132812 101.820312 L 229.140625 103.269531 L 191.660156 50.492188" fill-rule="evenodd"/><path fill="#70D2FA" d="M 164.265625 118.425781 L 164.265625 129.71875 L 171.464844 129.71875 L 171.464844 127.121094 C 171.464844 122.820312 168.351562 119.214844 164.265625 118.425781 Z M 153.714844 127.121094 L 153.714844 129.71875 L 161.117188 129.71875 L 161.117188 118.40625 C 156.933594 119.117188 153.714844 122.75 153.714844 127.121094 Z M 164.265625 144.933594 L 171.464844 144.933594 L 171.464844 132.863281 L 164.265625 132.863281 Z M 153.714844 136.070312 L 153.714844 144.933594 L 161.117188 144.933594 L 161.117188 132.863281 L 153.714844 132.863281 L 153.714844 136.070312" fill-rule="evenodd"/><path fill="#70D2FA" d="M 176.859375 81.269531 L 176.859375 83.867188 L 184.261719 83.867188 L 184.261719 72.558594 C 180.078125 73.265625 176.859375 76.898438 176.859375 81.269531 Z M 187.410156 99.082031 L 194.609375 99.082031 L 194.609375 87.011719 L 187.410156 87.011719 Z M 187.410156 72.578125 L 187.410156 83.867188 L 194.609375 83.867188 L 194.609375 81.269531 C 194.609375 76.96875 191.496094 73.367188 187.410156 72.578125 Z M 176.859375 90.21875 L 176.859375 99.082031 L 184.261719 99.082031 L 184.261719 87.011719 L 176.859375 87.011719 L 176.859375 90.21875" fill-rule="evenodd"/><path fill="#70D2FA" d="M 279.167969 128.273438 L 279.167969 130.972656 L 286.851562 130.972656 L 286.851562 119.230469 C 282.511719 119.96875 279.167969 123.738281 279.167969 128.273438 Z M 290.117188 119.253906 L 290.117188 130.972656 L 297.59375 130.972656 L 297.59375 128.273438 C 297.59375 123.808594 294.359375 120.070312 290.117188 119.253906 Z M 290.117188 146.757812 L 297.59375 146.757812 L 297.59375 134.234375 L 290.117188 134.234375 Z M 279.167969 137.558594 L 279.167969 146.757812 L 286.851562 146.757812 L 286.851562 134.234375 L 279.167969 134.234375 L 279.167969 137.558594" fill-rule="evenodd"/><g clip-path="url(#b)"><path fill="#FFF" d="M 0.128906 239.285156 C 36.105469 208.691406 73.453125 179.71875 134.507812 178.152344 C 166.421875 177.328125 164.855469 189.664062 153.917969 205.734375 C 225.011719 163.179688 298.824219 157.585938 374.894531 182.621094 C 325.488281 156.855469 266.292969 145.75 183.03125 170.695312 C 188.167969 154.449219 166.238281 149.445312 127.042969 158.394531 C 73.8125 170.550781 33.863281 201.960938 0.128906 239.285156" fill-rule="evenodd"/></g><g fill="#FFF"><g><g><path d="M 23.234375 -8.234375 L 34.8125 -34.71875 L 40.171875 -34.71875 L 42.109375 0 L 36.765625 0 L 35.34375 -29.84375 L 35.140625 -29.84375 L 21.921875 0 L 21.1875 0 L 8.234375 -28.625 L 8.015625 -28.625 L 6.609375 0 L 4.296875 0 L 6.234375 -34.71875 L 11.109375 -34.71875 Z M 23.234375 -8.234375" transform="translate(5.01 289.864)"/></g></g></g><g fill="#FFF"><g><g><path d="M 20.5 -35.34375 C 25.039062 -35.34375 28.796875 -33.847656 31.765625 -30.859375 C 34.742188 -27.867188 36.234375 -23.71875 36.234375 -18.40625 C 36.234375 -14.976562 35.640625 -11.976562 34.453125 -9.40625 C 33.265625 -6.84375 31.707031 -4.859375 29.78125 -3.453125 C 26.039062 -0.734375 21.914062 0.625 17.40625 0.625 C 12.894531 0.625 9.160156 -0.882812 6.203125 -3.90625 C 3.253906 -6.925781 1.78125 -11.09375 1.78125 -16.40625 C 1.78125 -19.175781 2.171875 -21.671875 2.953125 -23.890625 C 3.742188 -26.109375 4.773438 -27.914062 6.046875 -29.3125 C 7.328125 -30.707031 8.804688 -31.878906 10.484375 -32.828125 C 13.566406 -34.503906 16.90625 -35.34375 20.5 -35.34375 Z M 9.96875 -5.984375 C 10.875 -4.441406 12.09375 -3.238281 13.625 -2.375 C 15.164062 -1.519531 16.941406 -1.09375 18.953125 -1.09375 C 20.960938 -1.09375 22.753906 -1.597656 24.328125 -2.609375 C 25.898438 -3.628906 27.125 -4.960938 28 -6.609375 C 29.78125 -9.890625 30.671875 -13.421875 30.671875 -17.203125 C 30.671875 -21.847656 29.742188 -25.585938 27.890625 -28.421875 C 25.828125 -31.597656 22.421875 -33.1875 17.671875 -33.1875 C 14.273438 -32 11.703125 -29.953125 9.953125 -27.046875 C 8.210938 -24.148438 7.34375 -20.867188 7.34375 -17.203125 C 7.34375 -12.722656 8.21875 -8.984375 9.96875 -5.984375 Z M 9.96875 -5.984375" transform="translate(51.617 289.864)"/></g></g></g><g fill="#FFF"><g><g><path d="M 16.5625 0 L 11.484375 0 L 11.484375 -32.203125 C 10.296875 -32.472656 9.109375 -32.609375 7.921875 -32.609375 L 0.84375 -30.984375 L 0.53125 -34.71875 L 27.53125 -34.71875 L 27.265625 -30.984375 L 20.140625 -32.609375 C 18.953125 -32.609375 17.757812 -32.472656 16.5625 -32.203125 Z M 16.5625 0" transform="translate(89.626 289.864)"/></g></g></g><g fill="#FFF"><g><g><path d="M 0.53125 0 L 16.09375 -35.546875 L 16.890625 -35.546875 L 32.453125 0 L 26.75 0 L 22.8125 -9.4375 L 7.234375 -9.4375 L 3.359375 0 Z M 8.015625 -11.4375 L 21.96875 -11.4375 L 15.046875 -28.421875 Z M 8.015625 -11.4375" transform="translate(117.675 289.864)"/></g></g></g><g fill="#FFF"><g><g><path d="M 0.84375 0 L 0.84375 -0.53125 L 20.875 -31.9375 C 18.8125 -32.53125 16.90625 -32.828125 15.15625 -32.828125 L 4.359375 -31.203125 L 3.828125 -34.71875 L 28.375 -34.71875 L 28.375 -34.1875 L 7.703125 -2.09375 L 26.53125 -3.515625 L 27.0625 0 Z M 0.84375 0" transform="translate(150.651 289.864)"/></g></g></g><g fill="#FFF"><g><g><path d="M 0.53125 0 L 16.09375 -35.546875 L 16.890625 -35.546875 L 32.453125 0 L 26.75 0 L 22.8125 -9.4375 L 7.234375 -9.4375 L 3.359375 0 Z M 8.015625 -11.4375 L 21.96875 -11.4375 L 15.046875 -28.421875 Z M 8.015625 -11.4375" transform="translate(193.693 289.864)"/></g></g></g><g fill="#FFF"><g><g><path d="M 4.71875 0 L 4.71875 -34.71875 L 14.625 -34.71875 C 18.644531 -34.71875 21.84375 -34.035156 24.21875 -32.671875 C 26.601562 -31.304688 27.796875 -29.257812 27.796875 -26.53125 C 27.796875 -24.613281 27.117188 -22.945312 25.765625 -21.53125 C 24.421875 -20.113281 22.546875 -19.035156 20.140625 -18.296875 C 23.316406 -17.703125 25.71875 -16.628906 27.34375 -15.078125 C 28.96875 -13.523438 29.78125 -11.820312 29.78125 -9.96875 C 29.78125 -8.113281 29.304688 -6.53125 28.359375 -5.21875 C 27.421875 -3.90625 26.21875 -2.898438 24.75 -2.203125 C 21.78125 -0.734375 18.738281 0 15.625 0 Z M 9.8125 -18.828125 L 13.578125 -18.828125 C 16.765625 -18.828125 19.046875 -19.535156 20.421875 -20.953125 C 21.804688 -22.367188 22.5 -24.140625 22.5 -26.265625 C 22.5 -27.703125 22.015625 -29.003906 21.046875 -30.171875 C 20.085938 -31.347656 18.613281 -32.234375 16.625 -32.828125 C 14.25 -32.828125 11.976562 -32.476562 9.8125 -31.78125 Z M 9.8125 -17.296875 L 9.8125 -2.359375 C 10.925781 -2.003906 12.65625 -1.828125 15 -1.828125 C 17.34375 -1.828125 19.421875 -2.472656 21.234375 -3.765625 C 23.054688 -5.066406 23.96875 -6.867188 23.96875 -9.171875 C 23.96875 -11.484375 22.96875 -13.414062 20.96875 -14.96875 C 18.976562 -16.519531 16.585938 -17.296875 13.796875 -17.296875 Z M 9.8125 -17.296875" transform="translate(226.67 289.864)"/></g></g></g><g fill="#FFF"><g><g><path d="M 4.71875 0 L 4.71875 -34.71875 L 14.625 -34.71875 C 18.75 -34.71875 22.472656 -33.84375 25.796875 -32.09375 C 27.578125 -31.1875 29.128906 -30.050781 30.453125 -28.6875 C 31.785156 -27.320312 32.851562 -25.582031 33.65625 -23.46875 C 34.46875 -21.351562 34.875 -19 34.875 -16.40625 C 34.875 -12.707031 33.945312 -9.582031 32.09375 -7.03125 C 28.695312 -2.34375 23.207031 0 15.625 0 Z M 14.578125 -1.78125 C 19.015625 -1.78125 22.578125 -3.09375 25.265625 -5.71875 C 27.960938 -8.34375 29.3125 -12.1875 29.3125 -17.25 C 29.3125 -21.164062 28.242188 -24.515625 26.109375 -27.296875 C 23.984375 -30.078125 21.222656 -31.921875 17.828125 -32.828125 C 14.785156 -32.828125 12.128906 -32.457031 9.859375 -31.71875 L 9.859375 -2.25 C 10.972656 -1.9375 12.546875 -1.78125 14.578125 -1.78125 Z M 14.578125 -1.78125" transform="translate(260.433 289.864)"/></g></g></g><g fill="#FFF"><g><g><path d="M 20.5 -35.34375 C 25.039062 -35.34375 28.796875 -33.847656 31.765625 -30.859375 C 34.742188 -27.867188 36.234375 -23.71875 36.234375 -18.40625 C 36.234375 -14.976562 35.640625 -11.976562 34.453125 -9.40625 C 33.265625 -6.84375 31.707031 -4.859375 29.78125 -3.453125 C 26.039062 -0.734375 21.914062 0.625 17.40625 0.625 C 12.894531 0.625 9.160156 -0.882812 6.203125 -3.90625 C 3.253906 -6.925781 1.78125 -11.09375 1.78125 -16.40625 C 1.78125 -19.175781 2.171875 -21.671875 2.953125 -23.890625 C 3.742188 -26.109375 4.773438 -27.914062 6.046875 -29.3125 C 7.328125 -30.707031 8.804688 -31.878906 10.484375 -32.828125 C 13.566406 -34.503906 16.90625 -35.34375 20.5 -35.34375 Z M 9.96875 -5.984375 C 10.875 -4.441406 12.09375 -3.238281 13.625 -2.375 C 15.164062 -1.519531 16.941406 -1.09375 18.953125 -1.09375 C 20.960938 -1.09375 22.753906 -1.597656 24.328125 -2.609375 C 25.898438 -3.628906 27.125 -4.960938 28 -6.609375 C 29.78125 -9.890625 30.671875 -13.421875 30.671875 -17.203125 C 30.671875 -21.847656 29.742188 -25.585938 27.890625 -28.421875 C 25.828125 -31.597656 22.421875 -33.1875 17.671875 -33.1875 C 14.273438 -32 11.703125 -29.953125 9.953125 -27.046875 C 8.210938 -24.148438 7.34375 -20.867188 7.34375 -17.203125 C 7.34375 -12.722656 8.21875 -8.984375 9.96875 -5.984375 Z M 9.96875 -5.984375" transform="translate(297.55 289.864)"/></g></g></g><g fill="#FFF"><g><g><path d="M 30.515625 -34.71875 L 30.515625 -13.421875 C 30.515625 -10.171875 30.164062 -7.722656 29.46875 -6.078125 C 29.15625 -5.347656 28.65625 -4.519531 27.96875 -3.59375 C 27.289062 -2.664062 26.5 -1.921875 25.59375 -1.359375 C 23.28125 -0.0351562 20.394531 0.625 16.9375 0.625 C 8.269531 0.625 3.9375 -3.832031 3.9375 -12.75 L 3.9375 -34.71875 L 9.28125 -34.71875 L 9.28125 -12.328125 C 9.28125 -11.304688 9.296875 -10.484375 9.328125 -9.859375 C 9.367188 -9.234375 9.550781 -8.34375 9.875 -7.1875 C 10.207031 -6.03125 10.660156 -5.101562 11.234375 -4.40625 C 11.816406 -3.707031 12.726562 -3.078125 13.96875 -2.515625 C 15.21875 -1.953125 16.695312 -1.671875 18.40625 -1.671875 C 24.945312 -1.671875 28.21875 -5.171875 28.21875 -12.171875 L 28.21875 -34.71875 Z M 30.515625 -34.71875" transform="translate(335.56 289.864)"/></g></g></g><g fill="#70D2FA"><g><g><path d="M 14.421875 -12.078125 L 7.40625 -12.078125 L 7.40625 0 L 3.453125 0 L 3.453125 -29.859375 L 13.328125 -29.859375 C 16.691406 -29.859375 19.28125 -29.09375 21.09375 -27.5625 C 22.90625 -26.03125 23.8125 -23.800781 23.8125 -20.875 C 23.8125 -19.019531 23.304688 -17.398438 22.296875 -16.015625 C 21.296875 -14.640625 19.898438 -13.609375 18.109375 -12.921875 L 25.125 -0.25 L 25.125 0 L 20.890625 0 Z M 7.40625 -15.296875 L 13.453125 -15.296875 C 15.410156 -15.296875 16.96875 -15.800781 18.125 -16.8125 C 19.28125 -17.820312 19.859375 -19.175781 19.859375 -20.875 C 19.859375 -22.71875 19.304688 -24.128906 18.203125 -25.109375 C 17.097656 -26.097656 15.507812 -26.601562 13.4375 -26.625 L 7.40625 -26.625 Z M 7.40625 -15.296875" transform="translate(57.383 344.725)"/></g></g></g><g fill="#70D2FA"><g><g><path d="M 20.34375 -13.796875 L 7.40625 -13.796875 L 7.40625 -3.21875 L 22.4375 -3.21875 L 22.4375 0 L 3.46875 0 L 3.46875 -29.859375 L 22.234375 -29.859375 L 22.234375 -26.625 L 7.40625 -26.625 L 7.40625 -17.015625 L 20.34375 -17.015625 Z M 20.34375 -13.796875" transform="translate(83.236 344.725)"/></g></g></g><g fill="#70D2FA"><g><g><path d="M 19.953125 -7.796875 L 7.4375 -7.796875 L 4.640625 0 L 0.578125 0 L 11.984375 -29.859375 L 15.421875 -29.859375 L 26.84375 0 L 22.8125 0 Z M 8.640625 -11.03125 L 18.78125 -11.03125 L 13.703125 -25 Z M 8.640625 -11.03125" transform="translate(107.1 344.725)"/></g></g></g><g fill="#70D2FA"><g><g><path d="M 7.421875 -3.21875 L 21.578125 -3.21875 L 21.578125 0 L 3.46875 0 L 3.46875 -29.859375 L 7.421875 -29.859375 Z M 7.421875 -3.21875" transform="translate(134.49 344.725)"/></g></g></g><g fill="#70D2FA"><g><g><path d="M 20.34375 -13.796875 L 7.40625 -13.796875 L 7.40625 -3.21875 L 22.4375 -3.21875 L 22.4375 0 L 3.46875 0 L 3.46875 -29.859375 L 22.234375 -29.859375 L 22.234375 -26.625 L 7.40625 -26.625 L 7.40625 -17.015625 L 20.34375 -17.015625 Z M 20.34375 -13.796875" transform="translate(167.479 344.725)"/></g></g></g><g fill="#70D2FA"><g><g><path d="M 12.265625 -13.3125 C 8.890625 -14.28125 6.429688 -15.472656 4.890625 -16.890625 C 3.347656 -18.304688 2.578125 -20.050781 2.578125 -22.125 C 2.578125 -24.476562 3.515625 -26.421875 5.390625 -27.953125 C 7.273438 -29.492188 9.722656 -30.265625 12.734375 -30.265625 C 14.785156 -30.265625 16.613281 -29.867188 18.21875 -29.078125 C 19.820312 -28.285156 21.066406 -27.191406 21.953125 -25.796875 C 22.835938 -24.398438 23.28125 -22.875 23.28125 -21.21875 L 19.3125 -21.21875 C 19.3125 -23.03125 18.738281 -24.453125 17.59375 -25.484375 C 16.445312 -26.515625 14.828125 -27.03125 12.734375 -27.03125 C 10.796875 -27.03125 9.28125 -26.601562 8.1875 -25.75 C 7.101562 -24.894531 6.5625 -23.707031 6.5625 -22.1875 C 6.5625 -20.96875 7.078125 -19.9375 8.109375 -19.09375 C 9.140625 -18.257812 10.894531 -17.492188 13.375 -16.796875 C 15.863281 -16.097656 17.804688 -15.328125 19.203125 -14.484375 C 20.609375 -13.648438 21.648438 -12.671875 22.328125 -11.546875 C 23.003906 -10.421875 23.34375 -9.101562 23.34375 -7.59375 C 23.34375 -5.164062 22.394531 -3.222656 20.5 -1.765625 C 18.613281 -0.316406 16.09375 0.40625 12.9375 0.40625 C 10.882812 0.40625 8.96875 0.015625 7.1875 -0.765625 C 5.414062 -1.554688 4.046875 -2.632812 3.078125 -4 C 2.117188 -5.363281 1.640625 -6.914062 1.640625 -8.65625 L 5.59375 -8.65625 C 5.59375 -6.851562 6.257812 -5.425781 7.59375 -4.375 C 8.925781 -3.332031 10.707031 -2.8125 12.9375 -2.8125 C 15.019531 -2.8125 16.613281 -3.234375 17.71875 -4.078125 C 18.820312 -4.929688 19.375 -6.085938 19.375 -7.546875 C 19.375 -9.003906 18.859375 -10.132812 17.828125 -10.9375 C 16.804688 -11.738281 14.953125 -12.53125 12.265625 -13.3125 Z M 12.265625 -13.3125" transform="translate(191.343 344.725)"/></g></g></g><g fill="#70D2FA"><g><g><path d="M 24.09375 -26.625 L 14.5 -26.625 L 14.5 0 L 10.578125 0 L 10.578125 -26.625 L 1 -26.625 L 1 -29.859375 L 24.09375 -29.859375 Z M 24.09375 -26.625" transform="translate(216.253 344.725)"/></g></g></g><g fill="#70D2FA"><g><g><path d="M 19.953125 -7.796875 L 7.4375 -7.796875 L 4.640625 0 L 0.578125 0 L 11.984375 -29.859375 L 15.421875 -29.859375 L 26.84375 0 L 22.8125 0 Z M 8.640625 -11.03125 L 18.78125 -11.03125 L 13.703125 -25 Z M 8.640625 -11.03125" transform="translate(241.307 344.725)"/></g></g></g><g fill="#70D2FA"><g><g><path d="M 24.09375 -26.625 L 14.5 -26.625 L 14.5 0 L 10.578125 0 L 10.578125 -26.625 L 1 -26.625 L 1 -29.859375 L 24.09375 -29.859375 Z M 24.09375 -26.625" transform="translate(268.698 344.725)"/></g></g></g><g fill="#70D2FA"><g><g><path d="M 20.34375 -13.796875 L 7.40625 -13.796875 L 7.40625 -3.21875 L 22.4375 -3.21875 L 22.4375 0 L 3.46875 0 L 3.46875 -29.859375 L 22.234375 -29.859375 L 22.234375 -26.625 L 7.40625 -26.625 L 7.40625 -17.015625 L 20.34375 -17.015625 Z M 20.34375 -13.796875" transform="translate(293.751 344.725)"/></g></g></g></svg>